ply
format ascii 1.0
element vertex 100
property float x
property float y
property float z
property float r
element face 226
property list uchar uint vertex_indices
end_header
68.318685232996572 779.318714108194399 47.043170778093810 0.080209883275983
103.764536544138224 686.617814128386271 135.976835595613238 0.170886932028635
501.037359017306756 468.175078283217488 178.629479257434070 0.214205217076563
146.416782484373385 607.329142914918407 212.966159011177751 0.169235586742693
192.181898428385068 465.169425291331663 238.690808037077801 0.198613908620322
511.971826068804944 682.886586026634063 162.994211426421316 0.211552352400904
497.253193920499768 324.122260470614435 234.619817865589596 0.201318032405557
452.266321080430032 470.463723470367938 230.950108840854739 0.172253757589027
291.549495246129027 234.120815297030248 312.310087226489543 0.670810226885135
310.786576282893861 276.881533336205848 279.093561486854469 0.368476123221630
525.900241178534998 123.218611393884160 347.813747155685007 0.209073880227656
504.052491828097573 238.301666620452096 200.201143823632634 0.149640871706762
191.019526690216054 211.551953005675045 201.574408381635152 0.162297047816766
318.457572561073505 888.061765471597027 352.159487785562817 0.750051401522653
340.706390555659425 319.287594335031827 259.140850442674946 0.336093216642721
64.380617128630817 40.112996691212103 421.650570260322354 0.208819891936701
317.760511571597931 96.734050372088703 339.998689942580029 0.777560964964047
318.320096263597975 815.211409558772402 362.225798819955799 0.886395342471949
260.127245547190739 446.279518131090356 251.928466430622592 0.325155094271555
510.633808740084760 137.927459347687886 338.182879975535343 0.207942192033755
318.672862130258238 769.845851431081996 387.251705700902676 0.776882699310540
525.280751924907122 466.706463612650339 137.709658556556093 0.199301342437663
389.166105707288864 173.027509638994729 325.502857073861094 0.784016900082740
136.197555054965250 136.220522179470350 339.106425556974273 0.209165551599772
233.321387016735287 103.631463619268246 338.019333867896307 0.641071580462070
191.801653568021607 318.464736883727880 240.903509231638907 0.193422216143527
530.483302166658859 736.460740487456633 83.856083603271230 0.212150936851200
307.323107140777950 556.202778442311683 257.147872569865456 0.420776074845744
502.043492067919942 284.011762659163139 218.644734360719156 0.217550266043692
493.590799208295209 650.462171074673734 192.546591495043600 0.198239711701149
364.431449922904051 437.686907871250412 256.955428411094260 0.359911119497719
309.395561712030599 612.609554270640160 260.561106278216585 0.290650846902040
228.134005389147291 163.554888987992541 327.659748741528347 0.739479865219425
222.140598668029639 203.476882597561229 320.393251451253434 0.623705339340808
338.516973306587488 599.051584424847988 256.893310179577497 0.315280701448140
226.761176319456069 463.350071079483541 244.514910491069912 0.230357282852478
526.209163136953066 754.957539509679009 28.135578582567305 0.191854925757102
413.316584889188562 115.222819838672592 336.160864917424192 0.634418438169862
246.052650442369611 348.679468243622694 253.903592495109820 0.227358368087755
498.180573556843115 133.570524660286139 132.463681507482022 0.173208470423012
472.584089539585307 625.848643424839679 214.904835074144529 0.155691827705647
319.116886150568234 883.185163608960011 414.272167811604561 0.786044948434925
156.724573699810605 467.738895699273371 226.045935782595649 0.164718561472862
173.163771694117003 142.002989466568664 334.301760327123475 0.372930589334816
295.443388516784296 328.894613264839734 257.387913395243515 0.367522955348546
407.320298208968779 357.065925785992022 252.173440649110120 0.208373915272559
218.034845162990649 124.911354364716118 334.408534542684947 0.637224450281212
321.311429952449373 309.796624556198822 260.507233622368290 0.370200482809781
21.490802916454307 455.872994396196987 28.366080660403892 0.199599919375836
189.363147738340984 265.287344098949688 223.518496767739094 0.224542022493932
392.373306605193420 219.749940759869531 316.493820370992978 0.639966046965509
318.513248958964994 805.228976977635398 407.772050499711781 0.780289001951200
318.784743146945061 922.373005524076120 384.925970497974959 0.661418390979599
431.806356536190322 613.570606759684779 229.735848162191559 0.208628350300177
319.187494765439226 731.855744612029639 308.476628465538681 0.771263177241489
406.496684549674342 467.822370705566016 242.120510944854090 0.214708388655745
281.436652733420260 448.530598807321269 255.505978898756382 0.435905999541656
534.760710967423506 95.468981956297981 366.279554818419570 0.201555149303121
246.002046245841569 576.820902231379591 255.072781928373388 0.218271760324256
269.128655543999855 83.273640223424906 342.066144037334141 0.652307946526010
77.515104722162135 67.642045616527653 397.201654044531665 0.197724711874840
318.821099487683000 777.263080770969395 297.195410121049747 0.768892444318453
390.165730040537937 362.427750919064636 253.613577214973077 0.235721435920635
547.655925745871855 463.796704441224563 110.723359491573774 0.162192067237552
288.938501345395593 147.911249768855555 330.514323002388551 0.885052583265659
480.947349265700268 144.857451606842915 333.705968765910711 0.283075029092014
318.957177802188767 891.444229267784294 442.161872505987446 0.656550009441231
333.504109933268069 285.989700441534126 273.462787562637857 0.338189951734062
275.674570020553972 399.374727905056034 258.209103238896944 0.358654971268227
119.824127142507294 464.852190621377872 177.108008155787786 0.228636888391198
334.742757737215868 434.582384035936627 256.301088267932016 0.465044612680638
317.665127794494481 743.281692971525899 269.817711665560125 0.593265467727628
527.055812278919916 710.044541148981352 136.925371472249481 0.168093978357531
346.610207807841277 232.415239245532518 313.004868273270802 0.695298787444522
271.510375832904288 498.979983778173619 258.177651823052258 0.349310601577336
296.198136173078353 296.457289111415832 269.174154978551144 0.294331204937541
56.484329699709328 458.917513964850343 80.515242375446050 0.205145034630212
185.570937601507126 589.099548605316841 238.402750020681196 0.210164846986763
318.617341891106662 836.602314315296894 320.735630956219950 0.783765087450704
211.481141565313322 342.486889916565929 250.381464236621213 0.192059451673263
271.151492608392346 572.334215963112797 256.058096155035628 0.290219322893577
319.090822946844582 635.346694277653569 268.835780862737806 0.286480879837985
121.236380758302843 648.790242967987865 173.171074711671451 0.222244486013194
502.267481144065812 182.870770888082092 168.353335497913520 0.222226426412442
104.569977035159440 119.236710275775366 349.619419176466351 0.205141463800265
265.619851994688418 221.572810180171729 316.323028886003328 0.716200865461596
82.607600817253143 743.415312806937777 81.778108290364003 0.235744188821571
369.543688425257130 119.616111487212066 335.688984902924062 0.838075914532335
351.205835403350022 389.879471769427880 255.815802976613924 0.420775146562138
372.814081357753821 83.013092285108556 341.333602510910453 0.631018021853244
417.759842901339880 193.329851857037340 321.026435267155193 0.630039096853827
356.644210451378399 506.491222493657631 256.261873942977388 0.407317617919153
318.987269906774827 710.590644454275889 345.499488838188199 0.703587746828147
630.064527374992281 459.339564680549358 58.134968750640404 0.198503795209455
319.315275697726065 693.278678866178439 298.038613144614942 0.623781719246323
545.738596249679517 35.469784372313207 406.746109054167846 0.223243759190884
318.834156095855235 931.164691887761705 419.918686352494490 0.639718439843860
479.178577469201514 353.427451150758202 245.918185682489309 0.200538665130081
212.621148541964430 141.682074808978513 144.323549223723859 0.216990973419086
372.438409407198492 592.081719720913497 250.393149201961364 0.220542853564259
2 8 9
2 13 17
2 10 19
2 17 20
2 21 2
2 28 11
2 6 28
2 5 29
2 32 33
2 31 34
2 27 34
2 18 35
2 4 35
2 26 36
2 22 37
2 40 29
2 17 41
2 13 41
2 42 4
2 32 43
2 33 43
2 43 23
2 38 44
2 24 46
2 32 46
2 43 46
2 14 47
2 9 47
2 44 47
2 12 49
2 49 25
2 22 50
2 41 51
2 17 51
2 20 51
2 13 52
2 41 52
2 53 40
2 30 55
2 55 7
2 27 56
2 18 56
2 35 56
2 57 10
2 16 59
2 24 59
2 46 59
2 60 15
2 54 61
2 17 61
2 14 62
2 62 45
2 21 63
2 32 64
2 16 64
2 46 64
2 59 64
2 37 65
2 65 19
2 41 66
2 51 66
2 9 67
2 14 67
2 47 67
2 38 68
2 44 68
2 56 68
2 18 68
2 42 69
2 30 70
2 68 70
2 56 70
2 54 71
2 61 71
2 72 5
2 26 72
2 8 73
2 9 73
2 50 73
2 64 73
2 67 73
2 18 74
2 35 74
2 56 74
2 27 74
2 8 75
2 9 75
2 47 75
2 44 75
2 48 76
2 77 58
2 77 3
2 17 78
2 61 78
2 13 78
2 79 25
2 79 38
2 27 80
2 74 80
2 34 80
2 31 80
2 80 58
2 31 81
2 34 81
2 1 82
2 82 3
2 83 11
2 39 83
2 84 60
2 84 23
2 32 85
2 33 85
2 64 85
2 8 85
2 73 85
2 86 1
2 22 87
2 50 87
2 73 87
2 64 87
2 16 87
2 37 87
2 14 88
2 47 88
2 44 88
2 62 88
2 68 88
2 30 88
2 70 88
2 16 89
2 87 89
2 37 89
2 22 90
2 50 90
2 37 90
2 65 90
2 27 91
2 56 91
2 70 91
2 34 91
2 30 91
2 55 91
2 54 92
2 17 92
2 20 92
2 61 92
2 93 63
2 54 94
2 92 94
2 71 94
2 94 81
2 57 95
2 41 96
2 66 96
2 52 96
2 97 6
2 45 97
2 98 12
2 34 99
2 91 99
2 53 99
3  13 17 41
3  32 33 43
3  32 43 46
3  17 41 51
3  17 20 51
3  13 41 52
3  18 35 56
3  24 46 59
3  32 46 64
3  16 59 64
3  46 59 64
3  41 51 66
3  14 47 67
3  9 47 67
3  38 44 68
3  18 56 68
3  56 68 70
3  54 61 71
3  8 9 73
3  9 67 73
3  18 35 74
3  18 56 74
3  27 56 74
3  8 9 75
3  9 47 75
3  44 47 75
3  17 61 78
3  13 17 78
3  27 74 80
3  27 34 80
3  31 34 80
3  31 34 81
3  32 33 85
3  32 64 85
3  8 73 85
3  64 73 85
3  22 50 87
3  50 73 87
3  64 73 87
3  22 37 87
3  16 64 87
3  14 47 88
3  44 47 88
3  14 62 88
3  44 68 88
3  30 70 88
3  68 70 88
3  16 87 89
3  37 87 89
3  22 50 90
3  22 37 90
3  37 65 90
3  27 56 91
3  56 70 91
3  27 34 91
3  30 55 91
3  30 70 91
3  17 20 92
3  17 61 92
3  54 61 92
3  54 92 94
3  54 71 94
3  41 66 96
3  41 52 96
3  34 91 99
